<svg width="193" height="209" viewBox="0 0 193 209" fill="none" xmlns="http://www.w3.org/2000/svg">
<path d="M87.8275 2.23359C90.3484 0.770338 93.2081 0 96.119 0C99.03 0 101.89 0.770338 104.411 2.23359L179.74 45.9577C182.261 47.4209 184.355 49.5255 185.81 52.06C187.266 54.5944 188.032 57.4693 188.032 60.3958V147.844C188.032 150.771 187.266 153.645 185.81 156.18C184.355 158.714 182.261 160.819 179.74 162.282L104.411 206.006C101.89 207.47 99.03 208.24 96.119 208.24C93.2081 208.24 90.3484 207.47 87.8275 206.006L12.4978 162.282C9.97686 160.819 7.88345 158.714 6.42798 156.18C4.97251 153.645 4.20627 150.771 4.20627 147.844V60.3958C4.20627 57.4693 4.97251 54.5944 6.42798 52.06C7.88345 49.5255 9.97686 47.4209 12.4978 45.9577" fill="#1B1B1B"/>
<g clip-path="url(#clip0_120_5)">
<path d="M80.5452 132.031C111.83 135.73 127.396 120.918 123.617 88.9592L121.797 78.7891C120.476 70.9071 119.738 56.2 126.833 49.1047C128.75 47.1875 128.75 44.0797 126.834 42.164C124.919 40.2483 121.811 40.2483 119.895 42.164C110.366 51.693 110.567 67.7453 111.663 77.0025L113.452 87.1681C117.876 114.209 107.689 122.813 89.0038 122.744C84.9081 122.729 81.2043 122.265 78.7556 121.864L68.5916 120.074C59.3328 118.98 43.282 118.777 33.753 128.306C31.8373 130.222 31.8373 133.33 33.753 135.245C35.6687 137.161 38.7765 137.161 40.6922 135.245C47.4002 128.537 60.9708 128.698 70.3812 130.238L80.5452 132.031Z" fill="#808080"/>
<path d="M147.801 87.0975C151.713 85.7523 155.394 83.7135 158.42 80.6883C160.335 78.7726 160.335 75.6648 158.42 73.7491C156.504 71.8334 153.396 71.8334 151.48 73.7491C150.18 75.0493 148.616 76.0762 146.891 76.8944L135.29 65.2936L127.593 57.5962C126.347 61.1424 125.955 65.5818 126.079 69.9612L128.351 72.2328L135.64 79.5218C132.699 79.7214 129.77 79.6539 127.118 79.4377L128.705 88.3541C128.746 88.6919 128.77 89.0162 128.806 89.3495C134.167 89.6093 140.567 89.3105 146.547 87.4954C146.981 87.4248 147.398 87.2867 147.801 87.0975Z" fill="white"/>
<path d="M88.2501 88.9276L107.79 108.468C109.03 105.285 109.538 101.159 109.29 96.089L99.411 86.2102C102.035 86.0601 104.91 86.1126 108.119 86.4324L106.572 77.6046C106.532 77.2607 106.496 76.8854 106.458 76.5236C79.7885 75.0703 66.6894 88.6949 68.1126 114.869C68.4744 114.907 68.8513 114.944 69.1936 114.983L69.4803 115.024L78.077 116.537C77.9464 114.992 77.8473 113.335 77.8398 111.577C77.8353 110.335 77.8803 109.143 77.9554 107.978L87.5489 117.572C88.0399 117.588 88.5188 117.614 89.0232 117.617C93.4387 117.633 97.0299 117.102 99.9034 116.048L80.6368 96.7811C82.2988 93.4046 84.7685 90.7398 88.2501 88.9276Z" fill="white"/>
<path d="M78.6881 156.204C78.8727 155.806 79.0094 155.393 79.0829 154.968C80.8995 148.987 81.1983 142.584 80.9386 137.22C80.6053 137.184 80.281 137.16 79.9432 137.119L79.6564 137.079L71.0012 135.555C71.2294 138.302 71.297 141.201 71.1093 144.052L61.5743 134.517C57.1319 134.378 52.7089 134.768 49.1853 136.007L68.4865 155.308C67.6637 157.037 66.6338 158.596 65.3382 159.891C63.4225 161.807 63.4225 164.915 65.3382 166.831C67.2554 168.748 70.3617 168.746 72.2774 166.831C75.3026 163.805 77.3429 160.12 78.6881 156.204Z" fill="white"/>
</g>
<defs>
<clipPath id="clip0_120_5">
<rect width="135.886" height="135.886" fill="white" transform="translate(96.0856 8.41241) rotate(45)"/>
</clipPath>
</defs>
</svg>