<svg width="293" height="309" viewBox="0 0 293 309" fill="none" xmlns="http://www.w3.org/2000/svg">
<g filter="url(#filter0_d_104_11)">
<path d="M137.426 51.8011C139.947 50.3378 142.807 49.5675 145.718 49.5675C148.628 49.5675 151.488 50.3378 154.009 51.8011L229.339 95.5252C231.86 96.9884 233.953 99.093 235.409 101.627C236.864 104.162 237.63 107.037 237.63 109.963V197.412C237.63 200.338 236.864 203.213 235.409 205.747C233.953 208.282 231.86 210.386 229.339 211.85L154.009 255.574C151.488 257.037 148.628 257.807 145.718 257.807C142.807 257.807 139.947 257.037 137.426 255.574L62.0963 211.85C59.5753 210.386 57.4819 208.282 56.0265 205.747C54.571 203.213 53.8047 200.338 53.8047 197.412V109.963C53.8047 107.037 54.571 104.162 56.0265 101.627C57.4819 99.093 59.5753 96.9884 62.0963 95.5252" fill="#1B1B1B"/>
<g clip-path="url(#clip0_104_11)">
<path d="M130.144 181.599C161.429 185.298 176.994 170.486 173.216 138.527L171.396 128.357C170.075 120.475 169.336 105.767 176.432 98.6722C178.349 96.755 178.349 93.6472 176.433 91.7315C174.517 89.8158 171.41 89.8158 169.494 91.7315C159.965 101.26 160.166 117.313 161.262 126.57L163.05 136.736C167.475 163.776 157.288 172.38 138.602 172.311C134.507 172.296 130.803 171.832 128.354 171.431L118.19 169.642C108.931 168.547 92.8806 168.345 83.3516 177.874C81.4359 179.789 81.4359 182.897 83.3516 184.813C85.2673 186.729 88.3751 186.729 90.2908 184.813C96.9987 178.105 110.569 178.266 119.98 179.806L130.144 181.599Z" fill="#808080"/>
<path d="M197.399 136.665C201.312 135.32 204.993 133.281 208.018 130.256C209.934 128.34 209.934 125.232 208.018 123.317C206.102 121.401 202.995 121.401 201.079 123.317C199.779 124.617 198.214 125.644 196.489 126.462L184.889 114.861L177.191 107.164C175.945 110.71 175.553 115.149 175.678 119.529L177.949 121.8L185.238 129.089C182.297 129.289 179.368 129.221 176.717 129.005L178.304 137.922C178.344 138.259 178.368 138.584 178.404 138.917C183.766 139.177 190.166 138.878 196.146 137.063C196.579 136.992 196.997 136.854 197.399 136.665Z" fill="white"/>
<path d="M137.849 138.495L157.389 158.035C158.629 154.852 159.136 150.727 158.888 145.657L149.01 135.778C151.634 135.628 154.509 135.68 157.717 136L156.171 127.172C156.13 126.828 156.094 126.453 156.057 126.091C129.387 124.638 116.288 138.262 117.711 164.437C118.073 164.474 118.45 164.512 118.792 164.551L119.079 164.591L127.676 166.105C127.545 164.56 127.446 162.902 127.438 161.144C127.434 159.903 127.479 158.711 127.554 157.546L137.148 167.139C137.638 167.156 138.117 167.181 138.622 167.184C143.037 167.201 146.628 166.669 149.502 165.615L130.235 146.349C131.897 142.972 134.367 140.307 137.849 138.495Z" fill="white"/>
<path d="M128.287 205.772C128.471 205.374 128.608 204.961 128.681 204.536C130.498 198.555 130.797 192.151 130.537 186.787C130.204 186.751 129.88 186.727 129.542 186.687L129.255 186.646L120.6 185.122C120.828 187.87 120.896 190.769 120.708 193.62L111.173 184.085C106.73 183.945 102.307 184.335 98.7838 185.574L118.085 204.875C117.262 206.605 116.232 208.163 114.937 209.459C113.021 211.375 113.021 214.482 114.937 216.398C116.854 218.315 119.96 218.314 121.876 216.398C124.901 213.373 126.941 209.687 128.287 205.772Z" fill="white"/>
</g>
</g>
<defs>
<filter id="filter0_d_104_11" x="0.598511" y="0.567505" width="292.171" height="308.24" filterUnits="userSpaceOnUse" color-interpolation-filters="sRGB">
<feFlood flood-opacity="0" result="BackgroundImageFix"/>
<feColorMatrix in="SourceAlpha" type="matrix" values="0 0 0 0 0 0 0 0 0 0 0 0 0 0 0 0 0 0 127 0" result="hardAlpha"/>
<feOffset dx="1" dy="1"/>
<feGaussianBlur stdDeviation="25"/>
<feComposite in2="hardAlpha" operator="out"/>
<feColorMatrix type="matrix" values="0 0 0 0 0 0 0 0 0 0 0 0 0 0 0 0 0 0 1 0"/>
<feBlend mode="normal" in2="BackgroundImageFix" result="effect1_dropShadow_104_11"/>
<feBlend mode="normal" in="SourceGraphic" in2="effect1_dropShadow_104_11" result="shape"/>
</filter>
<clipPath id="clip0_104_11">
<rect width="135.886" height="135.886" fill="white" transform="translate(145.684 57.9799) rotate(45)"/>
</clipPath>
</defs>
</svg>
